<svg width="482" height="482" viewBox="0 0 482 482" fill="none" xmlns="http://www.w3.org/2000/svg">
<path d="M210.657 30.5366C197.141 44.0525 188.403 59.957 185.319 75.4685C182.9 87.4725 183.928 99.5673 189.552 109.455C173.285 142.806 175.25 179.06 196.234 202.372C185.047 214.376 175.704 226.26 169.505 237.689C154.901 222.147 150.909 196.658 161.22 169.747C161.732 168.45 161.895 167.042 161.693 165.663C161.492 164.284 160.932 162.981 160.071 161.885C156.14 157.108 148.4 158.166 146.253 164.002C133.251 197.958 138.996 233.002 162.883 253.503C161.734 257.736 160.978 261.788 160.827 266.021C157.168 263.544 152.917 262.082 148.508 261.784C144.099 261.487 139.69 262.364 135.731 264.328C123.424 253.049 117.165 234.907 119.826 213.953C119.98 212.813 119.881 211.653 119.536 210.556C119.191 209.458 118.609 208.45 117.83 207.603C116.812 206.466 115.488 205.645 114.016 205.239C112.544 204.834 110.986 204.861 109.529 205.317C108.072 205.772 106.777 206.638 105.798 207.811C104.82 208.983 104.2 210.412 104.012 211.927C100.807 236.842 108.003 260.155 124.422 275.636C121.755 280.916 121.068 286.977 122.487 292.72C120.783 293.143 119.13 293.752 117.558 294.534C94.0944 269.831 54.8773 266.656 18.5326 285.403C17.5082 285.825 16.5825 286.455 15.8141 287.254C15.0456 288.052 14.4511 289.001 14.068 290.041C13.685 291.08 13.5218 292.188 13.5887 293.294C13.6556 294.4 13.9512 295.481 14.4568 296.467C14.9624 297.453 15.667 298.323 16.5261 299.023C17.3851 299.723 18.3801 300.237 19.4479 300.533C20.5158 300.828 21.6334 300.899 22.7301 300.741C23.8268 300.583 24.8789 300.199 25.8197 299.614C57.0846 283.649 88.6518 286.824 106.25 305.934C103.673 311.209 103.01 317.216 104.375 322.927C100.012 324.025 96.0358 326.306 92.885 329.518C90.466 331.937 88.6518 334.658 87.4423 337.682C79.1038 331.313 69.0424 327.598 58.5653 327.021C48.0882 326.444 37.6797 329.031 28.6922 334.447C5.25866 347.963 -6.26157 375.267 5.89363 396.281C12.7876 408.164 25.9104 415.209 41.3917 415.391C42.4197 419.594 45.4434 426.276 50.6139 431.416C55.7541 436.557 62.2853 439.58 66.5789 440.608C66.8511 456.21 73.8358 469.243 85.7491 476.137C106.703 488.231 134.037 476.741 147.583 453.338C153.018 444.353 155.618 433.939 155.047 423.453C154.475 412.968 150.757 402.899 144.378 394.558C147.971 393.077 151.172 390.783 153.727 387.855C156.283 384.927 158.123 381.446 159.104 377.686C164.831 379.034 170.849 378.35 176.127 375.75C194.874 392.985 198.593 424.734 182.386 456.18C181.592 457.674 181.302 459.385 181.558 461.057C181.814 462.729 182.603 464.275 183.807 465.463C187.647 469.394 194.178 468.426 196.627 463.498C215.284 427.637 212.169 387.754 187.466 364.412C188.251 362.851 188.859 361.208 189.28 359.513C195.055 360.934 200.982 360.269 206.364 357.608C221.996 374.148 245.158 381.193 270.073 377.988C271.111 377.855 272.113 377.519 273.021 376.998C273.93 376.478 274.727 375.784 275.367 374.956C276.007 374.127 276.478 373.181 276.752 372.171C277.027 371.161 277.1 370.106 276.967 369.068C276.834 368.03 276.497 367.028 275.977 366.119C275.457 365.211 274.763 364.414 273.935 363.774C273.106 363.133 272.16 362.663 271.15 362.388C270.14 362.114 269.085 362.041 268.047 362.174C247.062 364.865 229.102 358.636 217.672 346.3C219.643 342.335 220.531 337.92 220.244 333.501C219.957 329.083 218.507 324.819 216.04 321.143C220.273 321.052 224.294 320.266 228.527 319.117C236.389 328.49 248.786 336.594 263.088 340.162C277.269 343.911 296.953 343.79 318.028 335.747C323.834 333.63 324.862 325.92 320.236 322.11C319.154 321.18 317.838 320.564 316.43 320.329C315.023 320.094 313.578 320.25 312.253 320.78C285.826 330.909 260.095 327.311 244.311 312.495C255.982 306.206 267.654 296.893 279.628 285.766C302.88 306.72 339.164 308.746 372.576 292.448C382.554 298.132 394.527 299.1 406.531 296.681C422.043 293.597 438.189 284.617 451.403 271.433C471.117 251.689 481.035 229.011 481.035 202.282C481.036 200.698 480.568 199.149 479.69 197.831C478.811 196.513 477.562 195.485 476.099 194.876C474.637 194.268 473.027 194.107 471.473 194.413C469.919 194.719 468.49 195.479 467.368 196.597L455.273 208.692C446.777 217.188 436.678 222.208 427.758 223.659C419.08 225.02 411.551 223.115 406.713 218.277C403.598 215.132 401.391 207.513 402.48 197.021C402.646 195.372 402.297 193.713 401.481 192.271C400.665 190.829 399.422 189.675 397.923 188.969C396.424 188.262 394.743 188.038 393.112 188.327C391.48 188.615 389.978 189.403 388.813 190.58C382.765 196.627 382.221 197.232 379.772 199.621C366.256 213.137 357.487 229.102 354.373 244.613C351.833 257.494 353.254 270.466 359.906 280.595C333.721 291.48 307.748 288.789 291.178 274.638L291.45 274.397C313.916 251.9 330.758 219.456 341.583 191.608C344.879 183.142 347.509 175.25 349.626 167.993L406.531 111.087C408.263 109.378 410.599 108.419 413.032 108.419C415.466 108.419 417.802 109.378 419.533 111.087C421.243 112.819 422.202 115.155 422.202 117.588C422.202 120.022 421.243 122.358 419.533 124.089L389.115 154.508C381.768 162.369 392.985 173.164 400.454 165.786L430.812 135.428C433.161 133.095 435.026 130.321 436.298 127.264C437.571 124.208 438.226 120.93 438.226 117.619C438.226 114.308 437.571 111.03 436.298 107.973C435.026 104.916 433.161 102.142 430.812 99.8092C428.479 97.4642 425.707 95.6033 422.653 94.3335C419.599 93.0637 416.325 92.41 413.017 92.41C409.71 92.41 406.435 93.0637 403.382 94.3335C400.328 95.6033 397.555 97.4642 395.223 99.8092L355.068 139.903C355.083 138.821 355.012 137.739 354.857 136.668C354.574 134.232 353.514 131.952 351.833 130.167C350.057 128.49 347.788 127.43 345.362 127.143C344.292 126.974 343.21 126.893 342.127 126.901L382.221 86.8073C384.566 84.4751 386.427 81.7024 387.697 78.6487C388.967 75.5949 389.62 72.3202 389.62 69.013C389.62 65.7057 388.967 62.431 387.697 59.3773C386.427 56.3235 384.566 53.5508 382.221 51.2186C379.888 48.8691 377.114 47.0043 374.057 45.7318C371.001 44.4593 367.722 43.8042 364.412 43.8042C361.101 43.8042 357.823 44.4593 354.766 45.7318C351.709 47.0043 348.935 48.8691 346.602 51.2186L316.244 81.5764C308.806 89.317 319.933 100.293 327.523 92.8849L357.941 62.4969C359.665 60.7728 362.003 59.8042 364.442 59.8042C366.88 59.8042 369.219 60.7728 370.943 62.4969C372.667 64.2211 373.635 66.5595 373.635 68.9978C373.635 71.4362 372.667 73.7746 370.943 75.4988L314.037 132.344C306.78 134.461 298.919 137.182 290.452 140.447C257.131 153.48 227.167 170.956 207.362 190.852C193.241 174.343 190.429 148.521 201.405 122.094C211.746 128.837 224.597 130.197 237.387 127.627C252.898 124.543 268.893 115.744 282.409 102.228L291.45 93.1873C292.616 92.0196 293.393 90.5206 293.675 88.8949C293.956 87.2693 293.729 85.5962 293.025 84.1043C292.32 82.6124 291.172 81.3744 289.738 80.5593C288.303 79.7443 286.652 79.392 285.01 79.5505C276.09 80.4576 267.503 79.0667 263.723 75.3173C259.036 70.6004 256.92 63.2226 258.371 54.2725C259.792 45.3526 264.842 35.2233 273.308 26.757L285.403 14.6623C286.519 13.5418 287.278 12.1161 287.585 10.5648C287.893 9.01356 287.734 7.40605 287.129 5.94475C286.525 4.48346 285.501 3.23374 284.188 2.35298C282.875 1.47221 281.33 0.999803 279.748 0.995239C253.11 0.995239 230.372 10.8222 210.657 30.5366ZM257.918 19.8328C247.758 31.8368 243.948 43.1756 242.587 51.7326C240.471 64.674 243.404 77.5851 252.445 86.6561C257.283 91.4336 263.269 93.4594 267.321 94.427C257.797 103.014 245.853 109.606 234.272 111.904C222.692 114.232 212.925 112.055 206.878 106.008C200.83 99.9603 198.653 90.1334 200.982 78.6131C203.34 66.8208 210.506 53.3049 221.996 41.8149C231.865 31.5018 244.243 23.9273 257.918 19.8328ZM338.892 143.078C338.535 145.925 338.031 148.75 337.38 151.544C334.657 163.201 331.079 174.641 326.676 185.772C316.396 212.26 300.31 242.708 280.111 263.027C260.911 282.379 243.132 296.742 228.285 302.335C214.679 307.355 202.161 306.569 188.766 293.174C175.371 279.779 174.706 267.019 179.695 253.745C185.289 238.868 199.651 221.15 219.003 201.828C238.778 182.023 269.74 165.665 296.258 155.354C309.502 150.214 321.657 146.495 330.577 144.529C334.054 143.773 336.624 143.411 338.922 143.048L338.892 143.078ZM387.573 214.679C388.389 218.368 390.657 224.959 395.374 229.555C404.445 238.626 417.235 241.499 430.298 239.413C442.111 237.351 453.122 232.055 462.107 224.113C458.085 238.264 450.193 249.965 440.155 260.034C428.665 271.494 415.209 278.63 403.417 280.988C391.594 283.377 381.919 281.049 375.992 275.152C369.945 269.105 367.738 259.58 370.096 247.758C372.424 236.147 378.744 224.597 387.573 214.679ZM201.617 328.732C205.245 332.391 205.124 338.106 201.617 341.583C200.774 342.432 199.771 343.105 198.665 343.562C197.56 344.019 196.375 344.252 195.179 344.246C193.982 344.24 192.799 343.997 191.698 343.529C190.597 343.061 189.6 342.379 188.766 341.522L140.478 293.234C139.189 291.977 138.305 290.363 137.939 288.6C137.574 286.837 137.743 285.005 138.425 283.338C139.107 281.672 140.271 280.247 141.768 279.247C143.265 278.246 145.027 277.715 146.827 277.723C149.125 277.723 151.454 278.569 153.268 280.383L201.617 328.732ZM128.716 307.929C131.014 307.929 133.372 308.776 135.186 310.62L171.41 346.814C175.038 350.442 174.948 356.157 171.41 359.664C170.571 360.522 169.569 361.203 168.463 361.668C167.357 362.134 166.169 362.373 164.97 362.373C163.77 362.373 162.582 362.134 161.476 361.668C160.37 361.203 159.368 360.522 158.529 359.664L122.336 323.471C121.49 322.628 120.819 321.627 120.361 320.524C119.903 319.422 119.668 318.239 119.668 317.046C119.668 315.852 119.903 314.67 120.361 313.567C120.819 312.464 121.49 311.463 122.336 310.62C123.159 309.766 124.145 309.085 125.235 308.618C126.326 308.15 127.499 307.906 128.685 307.899L128.716 307.929ZM141.203 364.956C142.095 365.786 142.809 366.788 143.305 367.9C143.801 369.013 144.068 370.214 144.089 371.432C144.111 372.65 143.887 373.86 143.43 374.99C142.974 376.119 142.295 377.145 141.434 378.006C140.572 378.868 139.546 379.547 138.417 380.003C137.287 380.459 136.077 380.683 134.859 380.662C133.641 380.64 132.44 380.374 131.328 379.878C130.215 379.382 129.213 378.667 128.383 377.776L104.194 353.587C103.304 352.754 102.592 351.751 102.099 350.637C101.606 349.523 101.342 348.322 101.324 347.104C101.305 345.886 101.532 344.676 101.991 343.548C102.45 342.42 103.131 341.395 103.995 340.536C104.858 339.677 105.885 339 107.016 338.547C108.147 338.093 109.357 337.872 110.575 337.896C111.793 337.92 112.993 338.19 114.105 338.688C115.216 339.186 116.216 339.904 117.044 340.797L141.203 364.956ZM82.1206 354.222L127.778 399.879C138.996 411.067 143.501 428.483 133.765 445.295C123.908 462.349 105.645 469.182 93.7013 462.318C85.87 457.783 81.2438 447.502 82.9068 435.105C83.0454 434.033 82.9657 432.944 82.6725 431.904C82.3793 430.864 81.8787 429.894 81.2007 429.052C80.5228 428.21 79.6815 427.514 78.7276 427.006C77.7737 426.498 76.7268 426.188 75.65 426.095C70.5085 425.804 65.6447 423.668 61.9527 420.078C58.3516 416.39 56.204 411.526 55.9053 406.38C55.82 405.298 55.5157 404.245 55.0109 403.284C54.506 402.323 53.8112 401.474 52.9686 400.79C52.126 400.106 51.1531 399.6 50.109 399.303C49.0649 399.006 47.9714 398.924 46.8948 399.063C34.2255 400.726 24.1869 396.039 19.6816 388.299C12.969 376.627 19.2885 358.334 36.7352 348.265C43.2361 344.485 50.4929 342.429 58.7778 343.004C68.6955 344.002 76.5268 348.628 82.1206 354.222Z" fill="black"/>
</svg>
