<svg width="512" height="504" viewBox="0 0 512 504" fill="none" xmlns="http://www.w3.org/2000/svg">
<path d="M511.847 131.988L509.554 115.488C509.278 113.452 508.596 111.491 507.55 109.723C506.503 107.954 505.112 106.413 503.46 105.191C501.816 103.957 499.941 103.065 497.947 102.568C495.952 102.071 493.878 101.979 491.847 102.297L223.421 143.352C224.362 135.102 226.721 130.062 229.729 123.676C230.271 122.528 230.791 121.37 231.289 120.203L477.472 46.2584C479.442 45.6721 481.274 44.6979 482.862 43.3931C484.45 42.0883 485.761 40.4792 486.718 38.6604C487.684 36.8464 488.277 34.8575 488.463 32.8108C488.649 30.764 488.423 28.7008 487.8 26.7425L482.792 10.8555C482.18 8.89372 481.181 7.07436 479.855 5.50462C478.528 3.93488 476.901 2.64653 475.069 1.71551C473.243 0.772136 471.245 0.204494 469.196 0.0461318C467.146 -0.11223 465.086 0.141903 463.136 0.79351L389.769 25.0235C387.903 25.6624 386.364 27.0117 385.487 28.7783C384.61 30.5449 384.465 32.5863 385.083 34.4593C385.702 36.3322 387.035 37.8854 388.792 38.7817C390.549 39.678 392.589 39.845 394.468 39.2464L467.835 15.0165C467.901 14.9921 467.971 14.9821 468.041 14.9873C468.111 14.9925 468.179 15.0127 468.241 15.0465C468.441 15.1455 468.487 15.3055 468.503 15.3565L473.515 31.2464C473.53 31.2964 473.581 31.4574 473.475 31.6524C473.374 31.8484 473.214 31.8954 473.163 31.9104L237.261 102.766C237.362 102.386 237.448 102 237.546 101.621C237.632 101.273 237.718 100.93 237.8 100.582C237.948 99.9653 238.093 99.3483 238.233 98.7273L238.491 97.5513C238.616 96.9653 238.737 96.3793 238.851 95.7933C238.944 95.3323 239.034 94.8673 239.121 94.3983C239.218 93.8683 239.315 93.3403 239.409 92.8083C239.503 92.2663 239.593 91.7153 239.679 91.1643C239.722 90.8833 239.776 90.6023 239.819 90.3243L361.109 50.2664C362.977 49.6284 364.518 48.2789 365.397 46.5113C366.275 44.7437 366.421 42.7008 365.801 40.8265C365.182 38.9521 363.848 37.3979 362.09 36.5016C360.331 35.6052 358.29 35.4391 356.409 36.0394L239.054 74.8014C238.227 73.3636 237.135 72.0962 235.834 71.0664C234.145 69.7303 232.15 68.8352 230.029 68.4617C227.908 68.0881 225.728 68.2478 223.684 68.9264L211.348 73.0004C208.912 73.7978 206.766 75.2989 205.183 77.3143C203.599 79.3296 202.647 81.7689 202.449 84.3243C202.377 85.2115 202.286 86.0971 202.176 86.9803L185.68 92.4303C185.015 91.2663 184.174 90.2121 183.187 89.3053C181.48 87.745 179.388 86.6674 177.127 86.1834C174.865 85.6994 172.516 85.8264 170.32 86.5513L156.59 91.0863C154.76 91.6885 153.088 92.69 151.693 94.0183C150.299 95.3466 149.217 96.9684 148.527 98.7663C147.605 101.141 146.527 103.457 145.469 105.707L127.852 111.527C127.414 110.763 126.9 110.046 126.316 109.387C124.627 107.479 122.416 106.108 119.956 105.444C117.496 104.78 114.895 104.853 112.476 105.652L97.3947 110.632C93.5657 111.898 90.5938 114.785 89.2378 118.551C88.4835 120.654 87.8126 122.786 87.2268 124.941L70.3788 130.508C69.6587 129.266 68.7403 128.149 67.6598 127.203C64.1558 124.133 59.4218 123.176 54.9998 124.637L42.6398 128.719C37.7729 130.329 34.2899 134.672 33.7619 139.785C33.6639 140.738 33.5779 141.707 33.4999 142.688L16.9839 148.145C8.97291 150.789 4.51992 159.488 7.05392 167.535L8.22292 171.235C9.57791 175.539 12.6829 178.835 16.5119 180.613C14.6413 183.659 13.8859 187.26 14.3749 190.801L14.9099 194.645C15.9839 202.359 22.6719 208.015 30.2809 208.015C30.9139 208.015 31.5509 207.977 32.1949 207.898L47.4448 205.988C49.3518 211.152 50.5468 216.848 50.5468 225.852C50.5468 239.742 47.7148 245.766 43.7888 254.105C41.3749 259.238 38.7069 264.922 36.6409 272.254H11.8239C10.172 272.255 8.53858 272.602 7.02835 273.271C5.51812 273.941 4.1644 274.918 3.05393 276.141C1.94745 277.368 1.10947 278.812 0.593717 280.381C0.0779614 281.95 -0.104193 283.61 0.0589317 285.254C4.59392 330.652 24.4289 414.434 106.203 467.379V480.195C106.203 492.805 116.465 503.066 129.078 503.066H324.331C336.941 503.066 347.202 492.805 347.202 480.196V467.324C428.902 414.379 448.733 330.633 453.269 285.25C453.432 283.606 453.249 281.947 452.733 280.378C452.216 278.809 451.377 277.365 450.269 276.14C449.16 274.917 447.808 273.94 446.299 273.271C444.79 272.602 443.158 272.255 441.507 272.254H229.394C229.507 272.012 229.612 271.781 229.729 271.531C234.464 261.461 240.362 248.93 240.362 225.851C240.362 204.879 235.492 192.617 231.05 182.996L498.417 149.512C500.457 149.263 502.426 148.608 504.209 147.586C505.991 146.563 507.551 145.194 508.796 143.559C510.052 141.933 510.969 140.071 511.493 138.083C512.017 136.096 512.137 134.024 511.846 131.989L511.847 131.988ZM22.5079 166.73L21.3439 163.031C21.3026 162.899 21.3147 162.756 21.3775 162.633C21.4403 162.509 21.5488 162.416 21.6799 162.371L33.3279 158.523C33.3479 158.906 33.3749 159.273 33.3979 159.653C33.4139 159.883 33.4259 160.113 33.4409 160.343C33.4809 160.891 33.5199 161.433 33.5659 161.977C33.5659 162.007 33.5699 162.035 33.5739 162.067C33.6249 162.68 33.6719 163.297 33.7339 163.902L23.1639 167.078C23.0308 167.117 22.8878 167.102 22.7653 167.037C22.6428 166.972 22.5505 166.862 22.5079 166.73ZM30.3359 193.035C30.198 193.051 30.0594 193.012 29.9493 192.928C29.8392 192.843 29.7662 192.719 29.7459 192.582L29.2149 188.738C29.1951 188.601 29.2304 188.462 29.313 188.351C29.3957 188.24 29.5189 188.166 29.6559 188.145L39.0429 186.711C39.0739 186.797 39.1089 186.879 39.1449 186.969C39.4149 187.679 39.6909 188.371 39.9689 189.051C40.0159 189.164 40.0589 189.281 40.1089 189.395C40.4229 190.163 40.7473 190.928 41.0819 191.687L30.3359 193.035ZM204.246 125.066L204.258 125.031C205.007 122.836 205.848 120.673 206.778 118.547C206.778 118.543 206.781 118.539 206.781 118.531C207.668 116.488 208.586 114.539 209.488 112.621C209.582 112.418 209.68 112.211 209.773 112.008C209.918 111.699 210.066 111.387 210.211 111.074C210.321 110.844 210.426 110.614 210.535 110.379C210.805 109.793 211.078 109.203 211.344 108.605C211.379 108.527 211.414 108.445 211.454 108.363C211.691 107.824 211.93 107.273 212.168 106.719C212.238 106.559 212.305 106.395 212.375 106.23C212.633 105.613 212.887 104.988 213.137 104.348C213.195 104.203 213.247 104.055 213.305 103.91C213.504 103.387 213.699 102.855 213.891 102.316C213.961 102.109 214.035 101.902 214.109 101.691C214.413 100.804 214.696 99.9095 214.957 99.0083C215.107 98.4929 215.252 97.9759 215.391 97.4573C215.457 97.1993 215.527 96.9413 215.594 96.6803C215.77 95.9733 215.937 95.2463 216.094 94.5003C216.117 94.3903 216.144 94.2933 216.168 94.1803C216.18 94.1333 216.18 94.0863 216.191 94.0353C216.676 91.6509 217.034 89.2426 217.266 86.8203L225.531 84.0903C225.411 85.1373 225.28 86.1843 225.128 87.2273C225.104 87.3983 225.078 87.5623 225.054 87.7303C224.917 88.6403 224.773 89.5433 224.613 90.4503C224.57 90.7033 224.526 90.9573 224.479 91.2073C224.289 92.2503 224.09 93.2933 223.871 94.3283C223.859 94.3833 223.843 94.4383 223.831 94.4923C223.624 95.4573 223.401 96.4143 223.167 97.3723L222.945 98.2703C222.707 99.2103 222.461 100.148 222.199 101.082C222.168 101.192 222.136 101.305 222.104 101.414C221.827 102.375 221.539 103.332 221.238 104.289C220.833 105.568 220.406 106.839 219.957 108.102C219.575 109.177 219.174 110.245 218.754 111.305C218.75 111.316 218.75 111.325 218.746 111.335C217.952 113.349 217.095 115.338 216.176 117.297C211.969 126.238 207.996 134.684 207.996 151.918C207.996 152 208 152.07 208 152.148V152.16C208 153.027 208.016 153.871 208.04 154.7C208.05 155.242 208.078 155.762 208.098 156.29C208.113 156.598 208.125 156.91 208.141 157.215C208.171 157.82 208.211 158.415 208.254 159C208.266 159.137 208.277 159.273 208.285 159.41C208.715 164.883 209.613 169.352 210.789 173.273C211.198 174.644 211.655 176 212.16 177.339C213.379 180.586 214.762 183.543 216.176 186.551C220.702 196.171 225.382 206.125 225.382 225.851C225.382 245.582 220.702 255.531 216.176 265.156C215.106 267.437 214.008 269.762 212.992 272.254H204.484C205.996 267.906 207.762 264.156 209.488 260.48C213.695 251.54 217.668 243.09 217.668 225.852C217.668 208.617 213.695 200.168 209.488 191.222C207.496 186.992 205.477 182.692 203.84 177.532L203.828 177.492C201.723 170.832 200.578 163.602 200.336 155.382C200.336 155.375 200.332 155.363 200.332 155.352C200.301 154.242 200.285 153.102 200.285 151.922C200.281 140.164 201.945 131.879 204.246 125.066ZM179.02 271.531C183.754 261.461 189.648 248.93 189.648 225.851C189.648 208.996 186.504 197.77 182.965 189.016L191.656 187.93C193.062 191.496 194.546 194.656 195.93 197.602C199.855 205.937 202.687 211.961 202.687 225.852C202.687 239.742 199.855 245.766 195.93 254.105C193.516 259.238 190.848 264.922 188.785 272.254H178.684C178.797 272.008 178.902 271.777 179.02 271.531ZM176.535 174.723C176.485 174.602 176.43 174.48 176.379 174.355C176.107 173.711 175.847 173.063 175.598 172.41C175.398 171.89 175.203 171.363 175.02 170.828C174.973 170.699 174.93 170.566 174.887 170.438C174.41 169.019 174.003 167.577 173.668 166.118L185.914 164.246C185.926 164.336 185.941 164.422 185.949 164.512C186.102 165.926 186.277 167.293 186.477 168.613C186.497 168.753 186.516 168.895 186.539 169.035C186.754 170.422 186.992 171.758 187.254 173.047C187.274 173.157 187.289 173.27 187.309 173.375L176.535 174.723ZM185.32 108.324L196.723 104.559C196.681 104.643 196.64 104.728 196.602 104.813C196.434 105.18 196.262 105.547 196.086 105.914C196.036 106.024 195.984 106.133 195.93 106.246C194.844 108.551 193.7 110.992 192.578 113.656C192.551 113.715 192.528 113.773 192.5 113.836C192.16 114.656 191.816 115.496 191.48 116.359L191.41 116.543L180.86 119.711C182.395 116.332 183.95 112.625 185.32 108.324ZM173.71 137.5L186.738 133.586C185.965 138.172 185.457 143.324 185.332 149.18L172.27 151.176C172.316 145.546 172.832 141.219 173.71 137.5ZM150.234 139.902L150.246 139.852C151.148 132.309 152.871 126.508 154.84 121.504L154.906 121.332C155.238 120.496 155.578 119.68 155.918 118.882C155.977 118.75 156.031 118.622 156.09 118.488C156.203 118.223 156.32 117.961 156.434 117.699C156.492 117.574 156.547 117.441 156.605 117.316C156.765 116.953 156.93 116.594 157.09 116.238L157.207 115.992C157.344 115.692 157.48 115.391 157.617 115.094C158.004 114.266 158.387 113.441 158.773 112.621C159.852 110.332 161.063 107.761 162.164 105.02L171.586 101.906C169.875 107.824 167.641 112.664 165.617 116.965C165.567 117.078 165.512 117.187 165.461 117.301C165.391 117.441 165.328 117.582 165.261 117.727C165.101 118.059 164.945 118.395 164.789 118.734C164.558 119.221 164.331 119.709 164.109 120.199C163.934 120.579 163.762 120.961 163.589 121.344C163.551 121.426 163.512 121.512 163.477 121.598C160.086 129.172 157.281 137.445 157.281 151.918C157.281 155.051 157.414 157.883 157.656 160.492V160.539C157.66 160.559 157.66 160.579 157.664 160.594C157.699 160.964 157.742 161.313 157.781 161.672C157.824 162.078 157.867 162.488 157.914 162.882C157.98 163.398 158.051 163.898 158.125 164.395C158.148 164.57 158.175 164.75 158.203 164.925C159.078 170.605 160.508 175.121 162.183 179.235C162.243 179.375 162.297 179.52 162.355 179.656C162.425 179.832 162.5 180 162.575 180.172C162.746 180.59 162.922 181 163.102 181.406C163.137 181.484 163.168 181.562 163.203 181.641C163.856 183.113 164.528 184.576 165.219 186.031C165.301 186.203 165.379 186.375 165.461 186.543C169.988 196.168 174.668 206.117 174.668 225.848C174.668 245.582 169.988 255.531 165.461 265.152C164.387 267.434 163.293 269.758 162.273 272.25H153.766C155.281 267.902 157.043 264.152 158.77 260.477C162.977 251.535 166.953 243.09 166.953 225.847C166.953 208.609 162.98 200.164 158.773 191.219C157.531 188.582 156.277 185.914 155.113 183.031C155.113 183.027 155.113 183.023 155.109 183.02C152.395 176.297 150.844 169.973 150.082 162.52L150.07 162.45C149.746 159.266 149.566 155.781 149.566 151.918C149.566 147.449 149.809 143.48 150.234 139.902ZM145.219 197.602C149.141 205.937 151.973 211.961 151.973 225.852C151.973 239.742 149.141 245.766 145.219 254.105C142.805 259.238 140.133 264.925 138.07 272.254H127.97C128.083 272.008 128.192 271.777 128.306 271.531C133.044 261.461 138.938 248.926 138.938 225.851C138.938 212.648 137.008 202.902 134.47 195.09L143.524 193.957C144.094 195.211 144.665 196.426 145.22 197.602H145.219ZM126.754 176.832L126.734 176.797C126.24 175.712 125.769 174.617 125.32 173.512L136.293 171.836C136.316 171.961 136.348 172.082 136.371 172.211C136.582 173.312 136.809 174.387 137.047 175.426C137.102 175.66 137.16 175.895 137.215 176.133C137.473 177.215 137.742 178.262 138.027 179.277C138.051 179.363 138.07 179.453 138.094 179.539L128.566 180.73C128.48 180.543 128.391 180.355 128.305 180.172C128.289 180.141 128.277 180.109 128.262 180.078C127.742 178.973 127.234 177.895 126.754 176.832ZM126.41 127.782L138.215 123.882C137.93 124.859 137.665 125.882 137.406 126.922L137.348 127.145C136.996 128.578 136.68 130.02 136.402 131.469C136.387 131.555 136.372 131.645 136.352 131.73C136.262 132.207 136.172 132.672 136.086 133.16L123.113 137.055C123.933 133.73 125.051 130.833 126.41 127.782ZM134.617 149.242C134.564 151.804 134.587 154.366 134.687 156.926L121.832 158.891C121.673 156.985 121.584 155.074 121.566 153.161L134.617 149.242ZM114.801 117.192L114.93 117.254L114.867 117.352L114.754 117.301C114.765 117.263 114.781 117.227 114.801 117.192ZM98.8827 149.39C98.8947 148.886 98.9137 148.401 98.9297 147.913C98.9407 147.613 98.9497 147.303 98.9597 147.007C98.9877 146.417 99.0197 145.847 99.0547 145.28L99.0847 144.733C99.1247 144.132 99.1717 143.546 99.2187 142.972L99.2537 142.558C99.3087 141.964 99.3637 141.386 99.4257 140.819C99.4367 140.709 99.4487 140.597 99.4647 140.487C99.6447 138.886 99.8587 137.394 100.094 135.991C100.152 135.651 100.207 135.311 100.27 134.976C100.412 134.192 100.568 133.411 100.739 132.632C101.325 129.897 102.079 127.201 102.996 124.558L112.895 121.288C109.445 128.948 106.566 137.249 106.566 151.921C106.566 166.64 109.465 174.948 112.93 182.631L112.941 182.655C113.234 183.295 113.523 183.936 113.821 184.573C113.832 184.593 113.84 184.616 113.851 184.636C114.145 185.272 114.445 185.909 114.746 186.546C114.777 186.612 114.805 186.675 114.836 186.737C115.216 187.549 115.595 188.362 115.973 189.175C116.379 190.054 116.785 190.948 117.187 191.862H117.191C120.812 200.097 123.953 209.694 123.953 225.851C123.953 245.577 119.27 255.531 114.746 265.155C113.672 267.433 112.578 269.761 111.559 272.249H103.051C104.566 267.901 106.328 264.151 108.059 260.476C112.266 251.534 116.239 243.085 116.239 225.851C116.239 208.616 112.266 200.167 108.055 191.221C107.665 190.386 107.27 189.546 106.879 188.702C106.879 188.702 106.879 188.698 106.875 188.698C106.583 188.069 106.295 187.437 106.012 186.804C106.004 186.784 105.996 186.764 105.988 186.749C103.906 182.116 101.738 176.601 100.375 169.464L100.352 169.382C99.5317 165.05 98.9917 160.104 98.8787 154.269V154.257C98.8627 153.491 98.8517 152.714 98.8517 151.917C98.8547 151.065 98.8637 150.222 98.8827 149.39ZM95.6047 199.956C98.9447 207.171 101.262 213.304 101.262 225.851C101.262 239.741 98.4257 245.765 94.5037 254.104C92.0897 259.237 89.4218 264.921 87.3548 272.253H77.2538C77.3708 272.011 77.4768 271.78 77.5938 271.53C82.3278 261.46 88.2228 248.929 88.2228 225.85C88.2228 215.894 87.1248 207.901 85.4958 201.222L95.6047 199.956ZM87.3198 179.323C87.3438 179.409 87.3708 179.487 87.3948 179.569C87.6748 180.562 87.9648 181.522 88.2648 182.456C88.3008 182.558 88.3348 182.659 88.3668 182.761C88.6814 183.726 89.0121 184.686 89.3588 185.64L80.5858 186.741C79.7155 184.735 78.8104 182.743 77.8708 180.768L87.3198 179.323ZM84.5308 164.597L82.4178 164.917L84.4998 164.292C84.5078 164.394 84.5198 164.495 84.5308 164.597ZM70.8828 149.147C70.8868 149.027 70.8868 148.905 70.8908 148.788C70.9208 147.913 70.9688 147.062 71.0268 146.229L71.0388 146.065L84.2888 141.69C84.2688 141.89 84.2618 142.097 84.2458 142.296C84.1464 143.683 84.0644 145.071 83.9998 146.46C83.9768 146.948 83.9568 147.44 83.9448 147.933C83.9338 148.233 83.9178 148.526 83.9098 148.831L70.8478 152.753C70.8438 152.472 70.8358 152.206 70.8358 151.921C70.8358 150.968 70.8558 150.05 70.8828 149.147ZM49.4028 168.054C49.3978 168.026 49.3978 168.003 49.3948 167.976C48.9652 165.438 48.6509 162.882 48.4528 160.316C48.4528 160.272 48.4488 160.226 48.4448 160.183C48.4011 159.624 48.3634 159.064 48.3318 158.503L48.2968 157.89C48.2768 157.468 48.2538 157.038 48.2378 156.608C48.2074 155.93 48.1864 155.252 48.1748 154.573C48.1718 154.358 48.1648 154.143 48.1598 153.929C48.1478 153.265 48.1398 152.597 48.1398 151.921C48.1466 150.813 48.1649 149.705 48.1948 148.597C48.2578 146.522 48.3708 144.495 48.5468 142.542L56.6328 139.874C56.5428 140.499 56.4728 141.144 56.4028 141.788C56.3788 141.999 56.3478 142.206 56.3238 142.421C56.2458 143.167 56.1838 143.937 56.1288 144.706C56.1088 144.964 56.0818 145.214 56.0658 145.472C56.0158 146.229 55.9798 147.007 55.9488 147.792C55.9368 148.073 55.9178 148.347 55.9098 148.636C55.8748 149.706 55.8598 150.8 55.8598 151.921C55.8598 152.979 55.8748 154.015 55.9018 155.031C56.3118 168.878 59.4648 176.71 63.0078 184.347C63.0428 184.421 63.0778 184.499 63.1128 184.577C63.4218 185.233 63.7268 185.89 64.0388 186.55L64.0858 186.647C64.4648 187.452 64.8478 188.265 65.2258 189.093C65.2348 189.106 65.2416 189.121 65.2458 189.136C66.4528 191.746 67.6518 194.464 68.7338 197.444C68.7338 197.448 68.7378 197.448 68.7378 197.452C71.3158 204.558 73.2458 213.186 73.2458 225.851C73.2458 245.581 68.5658 255.531 64.0388 265.155C62.9648 267.436 61.8708 269.761 60.8518 272.253H52.3438C53.8588 267.905 55.6208 264.155 57.3518 260.479C61.5548 251.539 65.5318 243.089 65.5318 225.851C65.5318 208.644 61.5698 200.194 57.3718 191.269C57.3628 191.253 57.3588 191.237 57.3518 191.222C57.1408 190.78 56.9338 190.335 56.7268 189.89C56.6518 189.737 56.5818 189.581 56.5068 189.425L55.8468 187.999L55.7068 187.694C55.4728 187.183 55.2418 186.664 55.0068 186.136C54.9798 186.073 54.9488 186.006 54.9218 185.94C54.6716 185.375 54.4266 184.807 54.1868 184.237L54.1568 184.159C53.0611 181.57 52.109 178.923 51.3048 176.229C51.3008 176.209 51.2928 176.194 51.2888 176.175C50.5007 173.508 49.8716 170.796 49.4028 168.054ZM437.995 287.234C433.05 330.808 413.295 407.198 338.058 455.39H184.769C183.785 455.39 182.811 455.584 181.902 455.961C180.994 456.337 180.168 456.889 179.473 457.585C178.778 458.28 178.226 459.106 177.85 460.015C177.474 460.924 177.28 461.898 177.281 462.882C177.28 463.865 177.474 464.839 177.85 465.748C178.227 466.656 178.778 467.482 179.474 468.177C180.169 468.872 180.995 469.424 181.904 469.8C182.812 470.176 183.786 470.37 184.77 470.37H332.222V480.19C332.222 484.546 328.682 488.085 324.331 488.085H129.078C124.727 488.085 121.184 484.545 121.184 480.19V470.37H149.918C151.904 470.37 153.809 469.58 155.214 468.176C156.619 466.771 157.408 464.866 157.408 462.88C157.408 460.893 156.619 458.988 155.214 457.583C153.809 456.179 151.904 455.39 149.918 455.39H115.27C40.0299 407.19 20.2799 330.809 15.3359 287.234H437.995ZM496.909 134.444C496.772 134.62 496.609 134.64 496.554 134.647L225.042 168.647C224.237 165.877 223.582 162.624 223.238 158.534L494.117 117.101C494.171 117.093 494.335 117.069 494.511 117.202C494.686 117.331 494.71 117.495 494.718 117.55L497.011 134.054C497.022 134.123 497.019 134.193 497.001 134.26C496.984 134.327 496.952 134.39 496.909 134.444Z" fill="black"/>
</svg>
