<svg width="510" height="512" viewBox="0 0 510 512" fill="none" xmlns="http://www.w3.org/2000/svg">
<path d="M508.657 157.718C484.073 82.8377 423.825 23.763 348.394 0.574332C341.843 -1.59168 334.245 2.60102 332.589 9.30354L295.03 149.284C294.53 151.204 294.809 153.244 295.807 154.959C296.805 156.674 298.441 157.925 300.357 158.44C302.274 158.954 304.316 158.69 306.039 157.705C307.761 156.719 309.024 155.093 309.553 153.181L335.995 54.6304C391.682 74.5004 436.203 118.194 457.115 173.538L384.572 200.167C375.749 184.91 355.375 178.012 339.061 184.897C322.72 191.419 313.527 208.505 316.226 225.255L287.372 235.846L300.448 187.116C300.948 185.196 300.668 183.156 299.671 181.44C298.673 179.725 297.037 178.474 295.121 177.96C293.204 177.446 291.162 177.71 289.439 178.695C287.717 179.68 286.454 181.306 285.925 183.219L271.598 236.616C268.714 246.042 278.933 255.33 288.017 251.623C352.273 228.039 436.651 197.065 501.073 173.416C504.134 172.305 506.641 170.042 508.057 167.109C509.474 164.177 509.689 160.807 508.657 157.718ZM339.91 40.0477L346.437 15.7194C415.476 37.8616 470.227 91.582 493.611 160.141L471.244 168.351C448.653 108.449 400.317 61.2207 339.91 40.0477ZM344.637 198.858C353.381 195.194 364.208 198.086 370.02 205.508L330.788 219.909C330.57 210.955 335.878 202.354 344.637 198.858Z" fill="black"/>
<path d="M483.253 210.901C482.844 209.178 482.074 207.561 480.994 206.156C479.915 204.752 478.55 203.593 476.989 202.755C475.429 201.917 473.708 201.419 471.941 201.294C470.174 201.17 468.401 201.421 466.739 202.032L375.85 235.397L329.806 252.297C329.787 252.304 329.769 252.313 329.75 252.321L293.206 265.736C291.372 266.451 289.891 267.856 289.082 269.651C288.273 271.445 288.2 273.486 288.878 275.334C289.557 277.181 290.932 278.69 292.711 279.534C294.489 280.379 296.527 280.492 298.388 279.851L328.578 268.768C332.489 275.229 338.268 280.335 345.33 283.438C350.026 285.512 355.104 286.586 360.238 286.591C364.79 286.591 369.348 285.741 373.715 284.038C390.178 277.641 399.534 260.532 396.88 243.693L431.472 230.994C433.822 243.001 435.008 255.207 435.012 267.442C435.012 371.899 350.03 456.88 245.574 456.88C141.117 456.88 56.1353 371.899 56.1353 267.442C56.1353 162.985 141.117 78.0035 245.574 78.0035C257.86 78.0035 270.101 79.2083 282.075 81.5527L227.528 284.826C226.928 287.043 226.951 289.382 227.594 291.586C228.237 293.791 229.476 295.775 231.173 297.321C232.865 298.874 234.953 299.931 237.206 300.374C239.46 300.818 241.792 300.631 243.946 299.835L265.451 291.941C267.322 291.253 268.844 289.851 269.682 288.041C270.519 286.232 270.604 284.164 269.917 282.292C268.486 278.396 264.168 276.4 260.269 277.826L243.3 284.055L307.69 44.104C309.623 37.4356 305.089 29.9794 298.284 28.6152C277.928 24.1038 256.918 22.2304 235.831 23.0403C196.831 24.5458 158.394 35.46 124.678 54.6003C122.977 55.6012 121.737 57.231 121.227 59.1378C120.717 61.0446 120.977 63.0755 121.952 64.792C122.926 66.5086 124.537 67.7731 126.435 68.3126C128.334 68.8521 130.369 68.6233 132.1 67.6756C164.187 49.4604 199.282 39.4984 236.412 38.0651C255.323 37.3384 274.183 38.911 292.488 42.7459L285.981 66.995C272.678 64.3197 259.142 62.971 245.573 62.9687C132.826 62.9687 41.0995 154.695 41.0995 267.442C41.0995 380.189 132.826 471.915 245.573 471.915C358.32 471.915 450.046 380.189 450.046 267.442C450.046 253.434 448.611 239.463 445.763 225.747L469.256 217.122C472.294 230.751 474.092 244.627 474.628 258.58C476.993 319.84 455.359 378.356 413.71 423.349C372.06 468.342 315.384 494.422 254.124 496.79C127.657 501.655 20.7895 402.754 15.9051 276.284C13.0706 202.871 45.9577 131.958 103.88 86.5914C104.657 85.9827 105.307 85.2268 105.792 84.367C106.277 83.5072 106.588 82.5602 106.707 81.5802C106.826 80.6002 106.751 79.6063 106.486 78.6554C106.22 77.7044 105.771 76.815 105.162 76.038C103.932 74.4684 102.13 73.4514 100.151 73.2108C98.1716 72.9702 96.1779 73.5257 94.6083 74.755C64.7552 98.1381 40.4018 128.566 24.1823 162.749C7.42152 198.074 -0.635132 237.535 0.883383 276.865C3.40422 342.143 31.1935 402.533 79.1335 446.907C124.704 489.089 183.287 512.002 245.037 512C248.249 512 251.477 511.938 254.705 511.813C319.979 509.292 380.367 481.502 424.744 433.563C469.123 385.623 492.174 323.274 489.654 258.001C489.038 242.087 486.884 226.241 483.253 210.901ZM368.264 270.028L368.254 270.032C365.557 271.092 362.677 271.605 359.781 271.544C356.884 271.483 354.029 270.847 351.38 269.674C348.177 268.275 345.354 266.131 343.149 263.42L382.301 249.046C382.464 258.025 377.074 266.607 368.264 270.028Z" fill="black"/>
<path d="M209.49 167.211C227.728 167.211 242.567 152.373 242.567 134.134C242.567 115.896 227.728 101.058 209.49 101.058C191.252 101.058 176.414 115.896 176.414 134.134C176.414 152.373 191.252 167.211 209.49 167.211ZM209.49 116.093C219.438 116.093 227.532 124.186 227.532 134.134C227.532 144.082 219.438 152.176 209.49 152.176C199.542 152.176 191.448 144.082 191.448 134.134C191.448 124.186 199.543 116.093 209.49 116.093ZM245.574 440.844C263.812 440.844 278.65 426.006 278.65 407.768C278.65 389.53 263.812 374.691 245.574 374.691C227.335 374.691 212.497 389.53 212.497 407.768C212.497 426.006 227.335 440.844 245.574 440.844ZM245.574 389.726C255.522 389.726 263.615 397.82 263.615 407.768C263.615 417.716 255.522 425.81 245.574 425.81C235.626 425.81 227.532 417.716 227.532 407.768C227.532 397.82 235.627 389.726 245.574 389.726ZM89.2118 230.357C89.2118 248.595 104.05 263.434 122.288 263.434C140.527 263.434 155.365 248.595 155.365 230.357C155.365 212.119 140.527 197.281 122.288 197.281C104.05 197.281 89.2118 212.119 89.2118 230.357ZM122.288 212.315C132.236 212.315 140.33 220.409 140.33 230.357C140.33 240.305 132.236 248.399 122.288 248.399C112.34 248.399 104.247 240.305 104.247 230.357C104.247 220.409 112.341 212.315 122.288 212.315ZM142.335 393.735C160.573 393.735 175.411 378.897 175.411 360.659C175.411 342.421 160.573 327.582 142.335 327.582C124.097 327.582 109.258 342.421 109.258 360.659C109.258 378.897 124.097 393.735 142.335 393.735ZM142.335 342.617C152.283 342.617 160.377 350.711 160.377 360.659C160.377 370.607 152.283 378.7 142.335 378.7C132.387 378.7 124.293 370.607 124.293 360.659C124.293 350.711 132.388 342.617 142.335 342.617ZM365.293 321.634C367.279 321.465 369.117 320.513 370.402 318.989C371.686 317.464 372.313 315.492 372.144 313.506C371.79 309.368 368.141 306.296 364.015 306.655C347.06 308.101 333.779 322.579 333.779 339.611C333.779 357.849 348.617 372.688 366.855 372.688C385.094 372.688 399.932 357.849 399.932 339.611C400.508 334.161 397.502 327.886 391.206 328.764C385.764 329.433 383.97 334.819 384.897 339.611C384.897 349.559 376.803 357.653 366.855 357.653C356.907 357.653 348.814 349.559 348.814 339.611C348.813 330.32 356.051 322.423 365.293 321.634ZM173.025 183.313C172.666 184.354 164.366 208.998 176.268 225.956C188.112 242.831 214.359 243.977 215.47 244.018C217.08 244.076 218.666 243.616 219.995 242.706C221.324 241.795 222.324 240.481 222.85 238.958C223.209 237.917 231.51 213.273 219.608 196.313C207.762 179.439 181.515 178.294 180.405 178.253C178.794 178.19 177.206 178.649 175.877 179.561C174.547 180.472 173.547 181.788 173.025 183.313ZM185.787 193.981C192.81 195.233 202.659 198.336 207.303 204.95C211.883 211.475 211.369 221.465 210.09 228.289C203.067 227.037 193.218 223.934 188.575 217.319C183.995 210.794 184.51 200.806 185.787 193.981ZM290.162 309.157C271.013 301.509 248.417 314.908 247.464 315.483C246.084 316.315 245.008 317.568 244.394 319.057C243.78 320.547 243.661 322.194 244.054 323.756C244.324 324.824 250.856 349.996 270.096 357.68C274.328 359.371 278.725 360.032 283.022 360.032C298.171 360.032 312.052 351.801 312.793 351.354C314.173 350.522 315.249 349.27 315.863 347.78C316.477 346.291 316.596 344.643 316.203 343.081C315.936 342.013 309.402 316.841 290.162 309.157ZM275.673 343.717C268.27 340.761 263.238 332.118 260.573 325.705C267.138 322.913 277.082 320.123 284.585 323.119C291.989 326.076 297.022 334.719 299.686 341.132C293.122 343.924 283.181 346.715 275.673 343.717ZM212.638 300.841C213.808 299.733 214.591 298.279 214.872 296.693C215.152 295.106 214.916 293.472 214.197 292.03C213.707 291.045 201.934 267.857 181.493 264.472C161.15 261.104 141.95 279.032 141.142 279.797C139.972 280.904 139.19 282.359 138.909 283.945C138.628 285.531 138.864 287.166 139.582 288.608C140.074 289.593 151.846 312.781 172.287 316.166C174.031 316.454 175.766 316.587 177.483 316.587C195.784 316.586 211.901 301.54 212.638 300.841ZM156.136 286.973C161.95 282.84 171.064 277.987 179.037 279.305C186.902 280.607 193.67 287.971 197.645 293.665C191.831 297.798 182.711 302.652 174.744 301.332C166.879 300.03 160.112 292.665 156.136 286.973ZM351.272 160.03C352.438 160.03 353.587 159.759 354.629 159.238C355.614 158.745 378.79 146.951 382.157 126.507C385.507 106.164 367.559 86.9773 366.793 86.1704C365.684 85.0021 364.229 84.2209 362.643 83.9417C361.056 83.6626 359.422 83.9003 357.981 84.6198C356.996 85.112 333.821 96.9063 330.454 117.351C327.104 137.694 345.051 156.88 345.817 157.687C346.519 158.428 347.365 159.018 348.303 159.421C349.241 159.823 350.251 160.031 351.272 160.03ZM345.289 119.793C346.584 111.927 353.942 105.153 359.631 101.172C363.771 106.981 368.635 116.091 367.322 124.065C366.029 131.921 358.687 138.689 353.001 142.672C349.158 137.317 343.907 128.19 345.289 119.793ZM80.1909 301.021C80.1909 313.455 90.3083 323.573 102.743 323.573C115.178 323.573 125.295 313.455 125.295 301.021C125.295 288.586 115.178 278.469 102.743 278.469C90.3083 278.469 80.1909 288.586 80.1909 301.021ZM102.743 293.503C106.889 293.503 110.261 296.875 110.261 301.021C110.261 305.166 106.889 308.538 102.743 308.538C98.5975 308.538 95.2257 305.166 95.2257 301.021C95.2257 296.875 98.5985 293.503 102.743 293.503ZM142.836 182.246C155.271 182.246 165.388 172.129 165.388 159.694C165.388 147.258 155.271 137.141 142.836 137.141C130.401 137.141 120.284 147.258 120.284 159.694C120.284 172.129 130.401 182.246 142.836 182.246ZM142.836 152.176C146.982 152.176 150.353 155.548 150.353 159.694C150.353 163.839 146.982 167.211 142.836 167.211C138.69 167.211 135.319 163.839 135.319 159.694C135.319 155.548 138.691 152.176 142.836 152.176ZM431.003 153.68C431.003 141.244 420.885 131.127 408.451 131.127C396.016 131.127 385.898 141.244 385.898 153.68C385.898 166.115 396.016 176.232 408.451 176.232C420.885 176.232 431.003 166.115 431.003 153.68ZM400.933 153.68C400.933 149.534 404.305 146.162 408.451 146.162C412.596 146.162 415.968 149.534 415.968 153.68C415.968 157.825 412.596 161.197 408.451 161.197C404.305 161.197 400.933 157.825 400.933 153.68ZM316.237 374.691C303.802 374.691 293.685 384.809 293.685 397.243C293.685 409.678 303.802 419.796 316.237 419.796C328.672 419.796 338.789 409.678 338.789 397.243C338.789 384.809 328.673 374.691 316.237 374.691ZM316.237 404.761C312.092 404.761 308.72 401.389 308.72 397.243C308.72 393.098 312.092 389.726 316.237 389.726C320.383 389.726 323.755 393.098 323.755 397.243C323.755 401.389 320.383 404.761 316.237 404.761ZM208.989 370.682C221.424 370.682 231.541 360.564 231.541 348.13C231.541 335.695 221.424 325.578 208.989 325.578C196.554 325.578 186.437 335.695 186.437 348.13C186.437 360.564 196.554 370.682 208.989 370.682ZM208.989 340.612C213.135 340.612 216.506 343.984 216.506 348.13C216.506 352.275 213.135 355.647 208.989 355.647C204.843 355.647 201.472 352.275 201.472 348.13C201.472 343.984 204.844 340.612 208.989 340.612Z" fill="black"/>
</svg>
