<svg width="426" height="512" viewBox="0 0 426 512" fill="none" xmlns="http://www.w3.org/2000/svg">
<path d="M249.231 159.683C248.182 160.732 247.468 162.068 247.179 163.523C246.889 164.978 247.038 166.486 247.605 167.856C248.173 169.226 249.134 170.398 250.367 171.222C251.601 172.046 253.051 172.486 254.534 172.486C255.519 172.487 256.495 172.294 257.405 171.917C258.315 171.54 259.141 170.987 259.837 170.289L267.896 162.23C269.302 160.823 270.092 158.916 270.092 156.927C270.092 154.938 269.302 153.03 267.896 151.624C266.489 150.218 264.582 149.428 262.593 149.428C260.604 149.428 258.696 150.218 257.29 151.624L249.231 159.683ZM240.653 136.694H252.049C254.038 136.694 255.946 135.904 257.352 134.497C258.759 133.091 259.549 131.183 259.549 129.194C259.549 127.205 258.759 125.297 257.352 123.891C255.946 122.484 254.038 121.694 252.049 121.694H240.653C238.664 121.694 236.756 122.484 235.35 123.891C233.943 125.297 233.153 127.205 233.153 129.194C233.153 131.183 233.943 133.091 235.35 134.497C236.756 135.904 238.664 136.694 240.653 136.694ZM68.823 119.937C84.177 133.25 103.302 139.838 122.399 139.838C143.487 139.837 164.54 131.802 180.426 115.916C210.697 85.645 212.463 36.624 184.447 4.314C183.32 3.0185 181.94 1.968 180.39 1.22751C178.841 0.48702 177.157 0.0722985 175.441 0.00900455C173.725 -0.05228 172.015 0.240529 170.417 0.869185C168.819 1.49784 167.367 2.44887 166.153 3.663L143.697 26.119C142.291 27.5255 141.501 29.433 141.501 31.422C141.501 33.411 142.291 35.3185 143.697 36.725C144.393 37.4216 145.22 37.9742 146.13 38.3512C147.04 38.7282 148.015 38.9222 149 38.9222C149.985 38.9222 150.96 38.7282 151.87 38.3512C152.78 37.9742 153.607 37.4216 154.303 36.725L174.828 16.201C195.906 42.578 193.914 81.213 169.818 105.309C145.721 129.404 107.086 131.396 80.709 110.319L129.302 61.725C130.708 60.3185 131.498 58.411 131.498 56.422C131.498 54.433 130.708 52.5255 129.302 51.119C127.895 49.7127 125.988 48.9226 123.999 48.9226C122.01 48.9226 120.102 49.7127 118.696 51.119L68.171 101.644C65.726 104.089 64.395 107.474 64.518 110.931C64.641 114.388 66.21 117.67 68.823 119.937Z" fill="black"/>
<path d="M141.602 78.53C140.196 79.9365 139.406 81.8441 139.406 83.833C139.406 85.822 140.196 87.7295 141.602 89.136L148.79 96.324C150.254 97.788 152.174 98.521 154.093 98.521C156.012 98.521 157.932 97.789 159.396 96.324C160.802 94.9175 161.592 93.01 161.592 91.021C161.592 89.0321 160.802 87.1245 159.396 85.718L152.208 78.53C150.801 77.1237 148.894 76.3336 146.905 76.3336C144.916 76.3336 143.008 77.1237 141.602 78.53ZM122.168 85.737C120.179 85.737 118.271 86.5272 116.865 87.9337C115.458 89.3403 114.668 91.2479 114.668 93.237V103.402C114.668 105.391 115.458 107.299 116.865 108.705C118.271 110.112 120.179 110.902 122.168 110.902C124.157 110.902 126.065 110.112 127.471 108.705C128.878 107.299 129.668 105.391 129.668 103.402V93.237C129.668 91.2479 128.878 89.3403 127.471 87.9337C126.065 86.5272 124.157 85.737 122.168 85.737ZM157.747 67.191H167.913C169.902 67.191 171.81 66.4009 173.216 64.9943C174.623 63.5878 175.413 61.6802 175.413 59.691C175.413 57.7019 174.623 55.7943 173.216 54.3877C171.81 52.9812 169.902 52.191 167.913 52.191H157.747C155.758 52.191 153.85 52.9812 152.444 54.3877C151.037 55.7943 150.247 57.7019 150.247 59.691C150.247 61.6802 151.037 63.5878 152.444 64.9943C153.85 66.4009 155.758 67.191 157.747 67.191Z" fill="black"/>
<path d="M399.984 309.982H384.79C384.503 308.837 384.169 307.704 383.791 306.585C408.571 300.835 425.127 285.805 425.127 268.044C425.127 256.17 417.684 245.31 404.742 237.691C427.157 213.299 430.175 178.995 411.087 159.908C407.388 156.209 403.113 153.35 398.454 151.292C398.135 139.286 394.803 127.541 388.757 117.211C388.264 116.352 387.606 115.6 386.82 114.996C386.035 114.393 385.138 113.952 384.181 113.697C383.224 113.442 382.226 113.38 381.245 113.513C380.264 113.646 379.318 113.972 378.464 114.472C377.609 114.972 376.862 115.637 376.266 116.427C375.669 117.218 375.235 118.118 374.989 119.078C374.742 120.037 374.688 121.035 374.829 122.015C374.971 122.995 375.305 123.938 375.812 124.788C379.875 131.744 382.394 139.493 383.198 147.509C379.612 147.225 376.007 147.29 372.434 147.704C369.714 125.129 350.453 107.573 327.157 107.573C314.254 107.573 302.598 112.97 294.294 121.611L286.728 114.045C296.973 103.465 311.302 96.863 327.157 96.863C336.334 96.863 345.439 99.117 353.487 103.382C355.245 104.313 357.3 104.509 359.202 103.924C361.103 103.34 362.695 102.025 363.626 100.267C364.557 98.5094 364.753 96.4538 364.168 94.5524C363.584 92.6509 362.269 91.0594 360.511 90.128C350.307 84.721 338.774 81.863 327.157 81.863C307.165 81.863 289.083 90.143 276.123 103.441L241.523 68.84C240.317 67.6327 238.877 66.6859 237.29 66.058C235.704 65.4302 234.005 65.1347 232.3 65.19C230.584 65.2478 228.898 65.6553 227.345 66.3874C225.792 67.1196 224.405 68.161 223.269 69.448C202.413 93.128 196.096 124.957 203.916 153.605C195.373 156.241 187.722 162.884 181.939 172.705C170.731 162.369 157.126 155.784 143.308 154.066C133.209 152.809 123.779 154.236 115.714 158.089C103.8 149.143 89.025 143.814 73.013 143.814C33.682 143.814 1.68401 175.812 1.68401 215.143C1.68401 240.146 14.626 262.168 34.154 274.905C32.266 278.499 30.974 282.374 30.416 286.468C29.293 294.707 31.242 302.797 35.503 309.982H18.377C15.9989 309.986 13.6464 310.472 11.4611 311.41C9.27587 312.348 7.30319 313.719 5.66201 315.44C2.34301 318.933 0.650013 323.499 0.895013 328.295C2.93601 368.231 16.333 406.5 39.637 438.966C62.465 470.769 93.587 495.447 129.639 510.333C132.34 511.443 135.234 512.01 138.155 512H280.206C283.177 512 286.042 511.439 288.722 510.333C324.774 495.448 355.896 470.77 378.724 438.966C402.028 406.5 415.425 368.23 417.466 328.295C417.711 323.499 416.018 318.933 412.699 315.44C411.058 313.719 409.085 312.348 406.9 311.41C404.715 310.472 402.362 309.986 399.984 309.982ZM327.158 122.574C343.383 122.574 356.693 135.261 357.707 151.234C350.264 153.966 342.983 158.12 336.32 163.639L304.896 132.215C310.482 126.287 318.391 122.574 327.158 122.574ZM324.185 182.107C324.654 183.34 325.439 184.427 326.462 185.259C327.485 186.092 328.71 186.64 330.012 186.848C331.314 187.056 332.648 186.917 333.88 186.445C335.111 185.973 336.196 185.184 337.026 184.159C338.432 182.417 339.928 180.75 341.507 179.164C360.152 160.52 386.609 156.641 400.482 170.514C414.356 184.389 410.476 210.844 391.831 229.489C390.269 231.046 388.627 232.52 386.913 233.908C385.89 234.738 385.104 235.824 384.633 237.055C384.163 238.285 384.025 239.618 384.234 240.92C384.443 242.221 384.991 243.444 385.822 244.466C386.654 245.488 387.74 246.272 388.972 246.741C402.021 251.706 410.128 259.869 410.128 268.043C410.128 279.875 393.755 290.792 372.043 293.437C370.813 293.587 369.639 294.039 368.627 294.753C367.615 295.467 366.795 296.421 366.241 297.529C365.687 298.637 365.416 299.866 365.453 301.104C365.49 302.342 365.832 303.552 366.451 304.626C367.446 306.345 368.312 308.135 369.041 309.982H366.135L318.878 262.725L361.441 220.162C362.847 218.756 363.637 216.848 363.637 214.859C363.637 212.87 362.847 210.963 361.441 209.556C360.035 208.15 358.127 207.36 356.138 207.36C354.149 207.36 352.241 208.15 350.835 209.556L308.272 252.119L273.821 217.668C272.576 216.427 271.09 215.455 269.454 214.81C267.819 214.165 266.069 213.861 264.312 213.918C262.551 213.981 260.821 214.404 259.229 215.16C257.637 215.917 256.217 216.992 255.056 218.318C248.64 225.669 243.466 234.017 239.739 243.034C237.08 235.606 235.723 228.225 235.837 221.439C235.93 215.901 237.17 205.985 244.43 201.794C246.52 200.587 248.986 199.991 251.712 199.991C256.075 199.991 261.103 201.519 266.319 204.515C267.392 205.131 268.601 205.472 269.837 205.508C271.074 205.544 272.3 205.273 273.407 204.72C274.514 204.167 275.467 203.349 276.18 202.338C276.894 201.327 277.347 200.156 277.498 198.928C280.163 177.273 291.075 160.944 302.879 160.944C311.056 160.942 319.22 169.052 324.185 182.107ZM343.33 308.391C342.458 308.96 341.563 309.491 340.645 309.982H306.185C303.038 308.298 300.157 306.16 297.634 303.636C285.239 291.241 283.655 272.068 292.879 257.94L343.33 308.391ZM194.168 271.229C171.347 271.229 152.387 288.074 149.066 309.982H138.273C141.672 282.151 165.434 260.519 194.168 260.519C222.902 260.519 246.664 282.151 250.063 309.982H239.27C235.949 288.073 216.989 271.229 194.168 271.229ZM224.002 309.982H164.335C167.461 296.395 179.646 286.229 194.168 286.229C208.69 286.229 220.876 296.395 224.002 309.982ZM248.212 270.375C249.619 255.931 255.134 241.801 264.873 229.933L282.115 247.175C268.254 265.803 268.625 291.744 283.224 309.982H265.16C263.715 294.929 257.566 281.237 248.212 270.375ZM232.828 81.358L297.863 146.393C282.358 149.187 269.576 164.834 264.36 187.187C261.29 186.141 258.248 185.46 255.256 185.153C252.967 184.918 250.66 184.921 248.371 185.162C242.519 168.302 231.982 156.526 219.444 153.256C211.579 129.215 215.928 101.925 232.828 81.358ZM114.687 176.897C121.153 170.431 130.661 167.609 141.458 168.951C152.952 170.38 164.389 176.274 173.661 185.547C175.241 187.132 176.737 188.799 178.143 190.541C178.972 191.566 180.058 192.355 181.289 192.827C182.52 193.299 183.855 193.438 185.157 193.23C186.459 193.022 187.684 192.474 188.707 191.642C189.73 190.81 190.515 189.723 190.984 188.49C195.949 175.435 204.113 167.325 212.29 167.325C221.203 167.325 229.602 176.639 234.33 190.522C225.84 196.75 221.069 207.493 220.838 221.186C220.663 231.614 223.173 242.992 227.994 254.065C217.607 248.443 205.979 245.505 194.168 245.518C194.085 245.518 194.003 245.524 193.92 245.524L164.333 215.937C162.927 214.531 161.019 213.741 159.03 213.741C157.041 213.741 155.134 214.531 153.727 215.937C152.321 217.344 151.531 219.251 151.531 221.24C151.531 223.229 152.321 225.137 153.727 226.543L175.263 248.079C151.863 254.52 133.233 272.594 126.045 295.678C113.38 290.84 105.04 282.867 105.04 274.424C105.04 266.25 113.146 258.087 126.196 253.122C127.427 252.653 128.513 251.868 129.345 250.846C130.177 249.824 130.724 248.601 130.933 247.3C131.142 245.999 131.004 244.666 130.534 243.436C130.064 242.205 129.278 241.12 128.255 240.289C126.54 238.902 124.899 237.427 123.337 235.87C114.064 226.597 108.17 215.16 106.74 203.666C105.398 192.871 108.22 183.364 114.687 176.897ZM56.017 240.573C47.815 235.075 42.394 225.738 42.394 215.143C42.394 198.26 56.13 184.524 73.013 184.524C80.154 184.524 86.719 186.994 91.931 191.108C91.6573 193.014 91.4917 194.934 91.435 196.859C83.74 197.034 76.41 199.348 70.269 204.016C59.566 212.151 54.633 225.851 56.017 240.573ZM70.912 266.831C72.0788 266.621 73.1791 266.137 74.1226 265.419C75.0662 264.701 75.8261 263.769 76.34 262.701C76.854 261.632 77.1074 260.457 77.0794 259.272C77.0514 258.087 76.7428 256.925 76.179 255.882C67.847 240.476 69.179 223.686 79.345 215.959C83.221 213.012 87.939 211.667 92.972 211.742C95.648 223.351 101.682 234.572 110.423 244.075C97.482 251.693 90.04 262.554 90.04 274.427C90.04 289.678 102.256 302.906 121.396 309.983H54.615C47.89 304.035 44.21 296.335 45.278 288.495C46.725 277.878 56.787 269.375 70.912 266.831ZM16.684 215.143C16.684 184.083 41.953 158.814 73.013 158.814C83.617 158.804 94.0056 161.806 102.969 167.472C100.526 170.106 98.4313 173.043 96.737 176.211C89.5994 171.831 81.3872 169.517 73.013 169.524C47.859 169.524 27.394 189.988 27.394 215.143C27.394 233.511 38.31 249.372 53.993 256.596C50.158 258.415 46.679 260.628 43.648 263.19C27.487 253.279 16.684 235.45 16.684 215.143ZM398.691 357.01H328C326.011 357.01 324.103 357.8 322.697 359.207C321.29 360.613 320.5 362.521 320.5 364.51C320.5 366.499 321.29 368.407 322.697 369.813C324.103 371.22 326.011 372.01 328 372.01H394.947C388.83 392.877 379.224 412.557 366.538 430.218C345.345 459.743 316.457 482.652 282.997 496.467C282.111 496.826 281.162 497.007 280.206 496.999H138.155C137.199 497.007 136.25 496.826 135.364 496.467C101.904 482.652 73.016 459.743 51.823 430.217C39.1365 412.556 29.5312 392.876 23.414 372.009H292C293.989 372.009 295.897 371.219 297.303 369.812C298.71 368.406 299.5 366.498 299.5 364.509C299.5 362.52 298.71 360.612 297.303 359.206C295.897 357.799 293.989 357.009 292 357.009H19.67C17.6515 347.294 16.3831 337.438 15.876 327.528C15.8585 327.205 15.9081 326.883 16.0217 326.58C16.1353 326.278 16.3104 326.002 16.536 325.771C16.817 325.476 17.429 324.981 18.377 324.981H399.984C400.932 324.981 401.545 325.476 401.825 325.771C402.15 326.113 402.528 326.695 402.485 327.528C401.978 337.438 400.71 347.294 398.691 357.01Z" fill="black"/>
<path d="M284.845 74.242C285.936 74.242 287.041 74.098 288.137 73.805L337.362 60.616H337.363C343.409 58.995 347.348 53.103 346.527 46.911C344.942 34.957 339.589 24.124 331.049 15.584C322.509 7.04401 311.677 1.69202 299.723 0.107015C293.536 -0.707985 287.64 3.22502 286.017 9.27302L272.828 58.497C271.659 62.862 272.868 67.375 276.063 70.571C278.457 72.964 281.59 74.242 284.845 74.242ZM299.925 15.325C307.72 16.795 314.777 20.525 320.443 26.19C326.109 31.856 329.838 38.912 331.308 46.708L288.438 58.195L299.925 15.325Z" fill="black"/>
</svg>
